HIERARCHY
ROOT Hip
{
    OFFSET 0.0 0.0 0.0
    CHANNELS 6 Xposition Yposition Zposition Zrotation Xrotation Yrotation
    JOINT RightHip
    {
        OFFSET -14.46761417388916 0.0 0.0
        CHANNELS 3 Zrotation Xrotation Yrotation
        JOINT RightKnee
        {
            OFFSET 0.0 0.0 -45.8013916015625
            CHANNELS 3 Zrotation Xrotation Yrotation
            JOINT RightAnkle
            {
                OFFSET 0.0 0.0 -44.579383850097656
                CHANNELS 3 Zrotation Xrotation Yrotation
                End Site
                {
                    OFFSET 0.0 -17.83175277709961 0.0
                }
            }
        }
    }
    JOINT LeftHip
    {
        OFFSET 14.46761417388916 0.0 0.0
        CHANNELS 3 Zrotation Xrotation Yrotation
        JOINT LeftKnee
        {
            OFFSET 0.0 0.0 -45.8013916015625
            CHANNELS 3 Zrotation Xrotation Yrotation
            JOINT LeftAnkle
            {
                OFFSET 0.0 0.0 -44.579383850097656
                CHANNELS 3 Zrotation Xrotation Yrotation
                End Site
                {
                    OFFSET 0.0 -17.83175277709961 0.0
                }
            }
        }
    }
    JOINT Spine
    {
        OFFSET 0.0 0.0 24.38321304321289
        CHANNELS 3 Zrotation Xrotation Yrotation
        JOINT Thorax
        {
            OFFSET 0.0 0.0 24.166622161865234
            CHANNELS 3 Zrotation Xrotation Yrotation
            JOINT Neck
            {
                OFFSET 0.0 0.0 12.17811393737793
                CHANNELS 3 Zrotation Xrotation Yrotation
                End Site
                {
                    OFFSET 0.0 0.0 4.871245861053467
                }
            }
            JOINT LeftShoulder
            {
                OFFSET 15.442316055297852 0.0 0.0
                CHANNELS 3 Zrotation Xrotation Yrotation
                JOINT LeftElbow
                {
                    OFFSET 28.792964935302734 0.0 0.0
                    CHANNELS 3 Zrotation Xrotation Yrotation
                    JOINT LeftWrist
                    {
                        OFFSET 23.485233306884766 0.0 0.0
                        CHANNELS 3 Zrotation Xrotation Yrotation
                        End Site
                        {
                            OFFSET 9.394094467163086 0.0 0.0
                        }
                    }
                }
            }
            JOINT RightShoulder
            {
                OFFSET -15.442316055297852 0.0 0.0
                CHANNELS 3 Zrotation Xrotation Yrotation
                JOINT RightElbow
                {
                    OFFSET -28.792964935302734 0.0 0.0
                    CHANNELS 3 Zrotation Xrotation Yrotation
                    JOINT RightWrist
                    {
                        OFFSET -23.485233306884766 0.0 0.0
                        CHANNELS 3 Zrotation Xrotation Yrotation
                        End Site
                        {
                            OFFSET -9.394094467163086 0.0 0.0
                        }
                    }
                }
            }
        }
    }
}
MOTION
Frames: 18
Frame Time: 0.03333333333333333
0.02140147872017783 90.3851311854998 0.019741456084327345 -92.13326503 -55.18366284 -89.2751444 -0.00377748 -0.32128021 4.28205221 1.97424209 29.78064577 -14.88664216 0.0 0.0 0.0 0.10090559 -8.23954885 -4.24101968 -7.09262722 54.43118921 12.04715928 0.0 0.0 0.0 -0.3643479 24.12046218 -4.37300018 -4.47958502 -3.3e-07 3.4e-07 5.62651668 -2.24812234 0.85363094 9.73712966 -26.11768926 48.01203207 -115.18334111 -2.62e-06 1.55e-06 0.0 0.0 0.0 -12.21954751 -22.62038257 -52.32008811 67.69411833 4.39e-06 2.82e-06 0.0 0.0 0.0
0.030331543879929007 90.38485290574611 0.025573903566261925 -91.17263033 -54.90770996 -88.75013707 0.04774214 -1.22326141 4.81066648 2.17953094 30.50386278 -15.16338026 0.0 0.0 0.0 0.20378979 -9.26697942 -3.63822609 -6.92069894 55.65815332 11.31780106 0.0 0.0 0.0 -0.47900011 23.71583893 -4.26341337 -4.16528378 9.5e-07 -8.9e-07 5.34013262 -2.62382022 0.9007559 9.12057242 -25.15430986 46.85778371 -111.04162017 -5.7e-07 7.2e-07 0.0 0.0 0.0 -11.32687362 -23.37033606 -50.71810927 67.73392765 2.16e-06 2.35e-06 0.0 0.0 0.0
0.04807290142828313 90.38423064301564 0.03592250071694007 -89.2333542 -54.3053843 -87.83933744 0.16762679 -3.02598444 6.12579791 2.71270657 31.82078154 -15.80384413 0.0 0.0 0.0 0.44140736 -11.32708329 -2.2484147 -6.32377332 57.70982365 9.63240435 0.0 0.0 0.0 -0.72568422 22.8576144 -3.79172804 -3.37972451 1.05e-06 -1.15e-06 4.60909945 -3.43842387 0.87977415 7.61259929 -22.38077996 44.85854338 -101.5667021 1.5e-06 6.4e-07 0.0 0.0 0.0 -9.0894535 -24.76733614 -47.26664054 67.31417815 -9.5e-07 1.55e-06 0.0 0.0 0.0
0.06942695728960173 90.38333589273304 0.04561299614288364 -86.83200301 -53.4762082 -87.01914315 0.34774288 -5.25065007 8.26180324 3.61614339 33.20652768 -16.78916382 0.0 0.0 0.0 0.79981905 -13.90790562 -0.16571118 -5.10835707 59.39936947 7.0876352 0.0 0.0 0.0 -1.0726061 21.75450788 -2.66281065 -2.12846823 1.9e-07 -1.41e-06 3.38216874 -4.59895569 0.59614146 5.13664297 -17.41637637 43.01251821 -87.45353043 1.75e-06 1e-06 0.0 0.0 0.0 -5.49223481 -26.31660079 -42.62907256 65.81317221 -2.1e-06 9e-08 0.0 0.0 0.0
0.08711927126711703 90.3823537370095 0.048138556238186296 -84.69498432 -52.62768949 -86.7751632 0.5568472 -7.28558907 10.96918127 4.82124782 34.16892178 -18.04306906 0.0 0.0 0.0 1.22562807 -16.38762038 2.27271906 -3.32924623 59.53246802 4.04616034 0.0 0.0 0.0 -1.46513299 20.82902173 -0.70165538 -0.63276133 -1.5e-07 -2.69e-06 1.78112914 -5.97143039 -0.11581952 1.78562006 -10.88444208 42.31064066 -70.8125935 1.29e-06 5.9e-07 0.0 0.0 0.0 -1.05858775 -27.52442987 -38.14939301 62.92176667 -1.33e-06 -4.2e-07 0.0 0.0 0.0
0.09533079223416392 90.38154399378305 0.03812446460746572 -83.37147912 -51.99190389 -87.26623216 0.75074218 -8.73452722 13.74023112 6.16295737 34.60211738 -19.4799093 0.0 0.0 0.0 1.6415048 -18.4032442 4.57031897 -1.351291 57.61036705 1.05609428 0.0 0.0 0.0 -1.84478878 20.57760053 1.98199072 0.71266304 -4.7e-07 -2.72e-06 0.16853781 -7.4782641 -1.25326995 -2.23608949 -4.40985262 43.14089667 -54.40169213 9.8e-07 6e-08 0.0 0.0 0.0 3.32762819 -28.18116225 -35.34200098 58.86313576 -1.24e-06 4.5e-07 0.0 0.0 0.0
0.09206843282255259 90.38118386574212 0.012298218102241586 -82.94331378 -51.7359629 -88.15181107 0.88704309 -9.60526698 15.95443937 7.45524666 34.89357479 -21.03148536 0.0 0.0 0.0 1.9640768 -20.03102773 6.22393814 0.3160024 54.08155122 -1.32083087 0.0 0.0 0.0 -2.14899401 21.36791561 4.95587386 1.51786117 5e-08 -1.25e-06 -0.92033967 -9.1413217 -2.58198756 -6.72119088 0.10613561 45.11874197 -40.72096474 5e-08 -4e-08 0.0 0.0 0.0 6.93839036 -28.39725708 -35.2135994 54.19782465 -2.31e-06 1.22e-06 0.0 0.0 0.0
0.07915437224171812 90.3815059128835 -0.030952731808234907 -83.01869587 -51.92602013 -88.73403042 0.93577883 -10.21279789 17.09215163 8.57176089 35.68132647 -22.62175154 0.0 0.0 0.0 2.11972616 -21.66536159 6.89931047 1.30757572 50.02500357 -2.71660828 0.0 0.0 0.0 -2.3066439 23.27102715 7.60523888 1.59940038 1.14e-06 -1.4e-07 -1.01887852 -11.03334404 -3.71944826 -11.56099327 1.48922811 47.4132848 -31.33355783 -4.9e-07 9e-08 0.0 0.0 0.0 9.67107632 -28.40681872 -37.80458723 49.4290097 -3.28e-06 1.52e-06 0.0 0.0 0.0
0.06036788795055745 90.38262767104641 -0.09200883435273287 -82.95729323 -52.54757008 -88.30817824 0.88342919 -10.92873359 16.93261262 9.48532884 37.48358487 -24.13087961 0.0 0.0 0.0 2.05716729 -23.75717694 6.58944718 1.62747887 46.57033165 -3.17961205 0.0 0.0 0.0 -2.24982372 26.00530304 9.42251292 1.09546803 1.58e-06 2.2e-07 -0.06515345 -13.19410305 -4.36523051 -16.73308968 -0.12676853 49.24970402 -26.36875092 -1.1e-07 3.9e-07 0.0 0.0 0.0 12.14903648 -28.40788897 -42.19912338 44.72839198 -2.89e-06 6.5e-07 0.0 0.0 0.0
0.03903225772234924 90.38449375332769 -0.16904005639876574 -82.22456246 -53.5459357 -86.54010052 0.73222421 -11.92518351 15.62475821 10.23247062 40.39033196 -25.38088193 0.0 0.0 0.0 1.75757637 -26.52104649 5.63601056 1.63654512 44.3922326 -3.21177016 0.0 0.0 0.0 -1.94432588 29.02358213 10.26630692 0.39493032 4.9e-07 1.01e-06 1.44060875 -15.53959745 -4.52498646 -22.08646708 -3.55413377 50.2858011 -24.68464717 8.5e-07 1.7e-07 0.0 0.0 0.0 15.25903897 -28.53920308 -47.04103057 40.02176709 -1.75e-06 1e-07 0.0 0.0 0.0
0.016415706112341683 90.38684100386538 -0.25595234210207873 -80.68525836 -54.83323843 -83.63743966 0.49860544 -13.07046501 13.57676547 10.8389115 44.02154716 -26.17875053 0.0 0.0 0.0 1.23578418 -29.76580242 4.56277072 1.81843872 43.50736299 -3.56214053 0.0 0.0 0.0 -1.40672834 31.70857527 10.41943458 -0.0529105 -9e-07 1.23e-06 2.61183649 -17.81765813 -4.56650538 -27.00791152 -7.39642348 50.69530219 -24.59718881 2.66e-06 6e-07 0.0 0.0 0.0 19.47832582 -28.94822756 -51.21391285 35.27594832 -5.4e-07 5.4e-07 0.0 0.0 0.0
-0.00815793867821227 90.3892180763511 -0.34108529427490664 -78.71542755 -56.25977279 -80.25689428 0.21214321 -13.99425176 11.22986844 11.26147797 47.7171273 -26.39235923 0.0 0.0 0.0 0.53529641 -32.89373061 3.78295667 2.47225159 43.39998692 -4.81915994 0.0 0.0 0.0 -0.69087166 33.59263331 10.37569789 0.06263501 -5.8e-07 1.01e-06 2.63615491 -19.63331574 -5.01702424 -30.29416582 -10.81610458 50.98778116 -24.72548714 2.69e-06 9.1e-07 0.0 0.0 0.0 24.45762107 -29.76883487 -54.272163 30.72747028 6e-07 1.07e-06 0.0 0.0 0.0
-0.03590604572083052 90.39108519498083 -0.4090714813223881 -77.0654718 -57.60102503 -77.21355398 -0.08760125 -14.27136406 8.85978486 11.39825719 50.85288839 -26.01685879 0.0 0.0 0.0 -0.28169939 -35.10491534 3.37362689 3.54399667 43.34710598 -7.08181872 0.0 0.0 0.0 0.15013585 34.51347027 10.51908836 0.8307802 5.1e-07 8e-08 1.20174462 -20.56897917 -6.23987699 -30.51046355 -13.73598619 51.70280012 -24.36293864 6.6e-07 1.1e-07 0.0 0.0 0.0 29.20433902 -30.99861599 -56.42231847 26.80385043 8.7e-07 1.16e-06 0.0 0.0 0.0
-0.0666998756736986 90.3920091543759 -0.44654233484030165 -76.49605065 -58.61457582 -75.1539815 -0.35829698 -13.63825855 6.54991335 11.16399281 53.07129874 -25.18705418 0.0 0.0 0.0 -1.1374187 -35.75517748 3.08875896 4.69075755 42.78526992 -9.90155608 0.0 0.0 0.0 1.077153 34.63085662 10.92087229 2.13396082 1e-06 -5.6e-07 -1.36457194 -20.37591931 -8.1964441 -26.82298082 -16.49214841 53.11976963 -23.41960649 -1.01e-06 1.6e-07 0.0 0.0 0.0 32.67737131 -32.40287981 -58.15223144 23.86308488 -3.5e-07 1.27e-06 0.0 0.0 0.0
-0.09810449337149756 90.39187518987693 -0.44929941205643253 -77.33582183 -59.15235641 -74.3135002 -0.56633263 -12.16136297 4.32725417 10.58288783 54.35395367 -24.13799807 0.0 0.0 0.0 -1.94167635 -34.7310537 2.61310183 5.52998117 41.55232549 -12.56641224 0.0 0.0 0.0 2.03995408 34.3022753 11.39870328 3.71748395 7.3e-07 -5.4e-07 -4.32419059 -19.15277644 -10.47244425 -19.73659778 -19.31988911 55.11975368 -22.14459617 -1.19e-06 1.76e-06 0.0 0.0 0.0 34.39228949 -33.61102261 -59.80840684 21.96845022 -4.9e-07 1.66e-06 0.0 0.0 0.0
-0.12568352111042463 90.39099545577467 -0.42644002757591015 -79.20161375 -59.25077167 -74.45026395 -0.6973731 -10.28423854 2.34107218 9.83107273 54.92105942 -23.13898678 0.0 0.0 0.0 -2.5981124 -32.62509625 1.86551988 5.88877674 39.94548738 -14.49927664 0.0 0.0 0.0 2.93108477 33.88738886 11.73567208 5.242319 1.23e-06 1e-08 -6.89930793 -17.39643239 -12.50530939 -11.25881196 -22.03416067 57.23185499 -20.90796162 -5.1e-07 3.16e-06 0.0 0.0 0.0 34.62219345 -34.35023842 -61.37753752 20.92066414 4.6e-07 1.01e-06 0.0 0.0 0.0
-0.1449674663550233 90.3899717337872 -0.3967801767353037 -81.16015093 -59.11178437 -75.0017748 -0.76009587 -8.6578784 0.87386059 9.17491684 55.07907466 -22.41643968 0.0 0.0 0.0 -3.03180665 -30.49780892 1.08383776 5.88379936 38.52483472 -15.53287915 0.0 0.0 0.0 3.59799459 33.60164103 11.86532427 6.37706417 2.07e-06 4.3e-07 -8.59556608 -15.81545595 -13.87630685 -4.12683228 -24.1294371 58.87996515 -20.01266157 4.3e-07 2.29e-06 0.0 0.0 0.0 34.14146153 -34.62108733 -62.58835729 20.42768108 1.18e-06 -1.16e-06 0.0 0.0 0.0
-0.15370572953113967 90.3893707889983 -0.37870293393557714 -82.27851868 -58.9779547 -75.40174092 -0.77858369 -7.8128971 0.16839172 8.83292855 55.08347058 -22.08262597 0.0 0.0 0.0 -3.22039099 -29.310344 0.62455508 5.78468918 37.77878453 -15.87286248 0.0 0.0 0.0 3.91991944 33.4879621 11.8735424 6.91557891 1.84e-06 1e-07 -9.31224414 -14.98167437 -14.46540546 -0.47715221 -25.15950093 59.67966365 -19.60494428 6.2e-07 7.9e-07 0.0 0.0 0.0 33.72169828 -34.64375618 -63.18273862 20.26283372 1.67e-06 -3.2e-06 0.0 0.0 0.0
